<svg fill="#fff" height="32" viewBox="0 0 32 32" width="32" xmlns="http://www.w3.org/2000/svg"><path d="m6 7.03125c-.308594 0-.597656.058594-.875.144531l2.914063 1.855469h15.921875l2.914062-1.855469c-.277344-.085937-.566406-.144531-.875-.144531zm-1.886719.6875c-.675781.550781-1.113281 1.378906-1.113281 2.3125v13c0 1.652344 1.347656 3 3 3h20c1.652344 0 3-1.347656 3-3v-13c0-.933594-.4375-1.761719-1.113281-2.3125l-11.886719 7.5625zm1.886719 4.726563 10 6.367187 10-6.367187v11.585937h-20z" fill="#fff"/></svg>