<svg fill="#fff" height="32" viewBox="0 0 32 32" width="32" xmlns="http://www.w3.org/2000/svg"><path d="m24.503906 7.503906c-2.257812-2.257812-5.257812-3.503906-8.453125-3.503906-6.585937 0-11.949218 5.359375-11.949218 11.945313-.003907 2.105468.546875 4.160156 1.59375 5.972656l-1.695313 6.191406 6.335938-1.664062c1.742187.953125 3.710937 1.453125 5.710937 1.457031h.003906c6.585938 0 11.945313-5.359375 11.949219-11.949219 0-3.191406-1.242187-6.191406-3.496094-8.449219zm-8.453125 18.378907h-.003906c-1.78125 0-3.53125-.480469-5.054687-1.382813l-.363282-.214844-3.761718.984375 1.003906-3.664062-.234375-.375c-.996094-1.582031-1.519531-3.410156-1.519531-5.285156 0-5.472657 4.457031-9.925782 9.9375-9.925782 2.652343 0 5.144531 1.035157 7.019531 2.910157 1.875 1.878906 2.90625 4.371093 2.90625 7.023437 0 5.476563-4.457031 9.929688-9.929688 9.929688zm5.445313-7.4375c-.296875-.148438-1.765625-.871094-2.039063-.96875-.273437-.101563-.472656-.148438-.671875.148437-.199218.300781-.769531.972656-.945312 1.171875-.171875.195313-.347656.222656-.644531.074219-.300782-.148438-1.261719-.464844-2.402344-1.484375-.886719-.789063-1.488281-1.769531-1.660156-2.066406-.175782-.300782-.019532-.460938.128906-.609375.136719-.132813.300781-.347657.449219-.523438.148437-.171875.199218-.296875.300781-.496094.097656-.199218.046875-.375-.027344-.523437-.074219-.148438-.671875-1.621094-.921875-2.21875-.242187-.582031-.488281-.5-.671875-.511719-.171875-.007812-.371094-.007812-.570312-.007812-.199219 0-.523438.074218-.796875.375-.273438.296875-1.042969 1.019531-1.042969 2.488281s1.070312 2.890625 1.21875 3.089844c.148437.195312 2.105469 3.210937 5.101562 4.503906.710938.308594 1.265625.492187 1.699219.628906.714844.226563 1.367188.195313 1.882813.121094.574218-.085938 1.765625-.722656 2.015625-1.421875.246093-.695313.246093-1.292969.171875-1.417969-.074219-.125-.273438-.199219-.574219-.351562z" fill="#fff" fill-rule="evenodd"/></svg>