<svg fill="#fff" height="50" viewBox="0 0 50 50" width="50" xmlns="http://www.w3.org/2000/svg"><path d="m40.925781 1.890625-3.066406.527344 3.328125 18.207031 2.84375-.371094zm-10.957031 4.460938-2.867187 1.726562 10.199218 14.957031 2.519532-1.554687zm-9.171875 8.679687-1.683594 2.671875 15.386719 9.296875 1.402344-2.421875zm-4.421875 9.371094-.746094 3 17.730469 4.492187.28125-2.691406zm-7.375 4.597656v18.984375l29.902344.015625v-.015625c.03125 0 .097656-18.984375.097656-18.984375h-3v16h-24v-16zm6.152344 3.355469-.25 2.984375 18.097656 1.660156.203125-2.5zm-.25 6.644531.097656 3 18-.070312v-2.929688z" fill="#fff" fill-rule="evenodd"/></svg>