<svg height="250" viewBox="0 0 230 250" width="230" xmlns="http://www.w3.org/2000/svg"><path d="m287.68 130.535006c-8.27-4.675-21.474 2.844-29.494 16.794l-14.52 25.259c-5.305 10.501-4.578 23.003 2.151 32.655l.424.608c6.728 9.653 15.751 18.574 18.736 21.757 1.755 1.871 3.096 4.18 3.836 6.822 2.452 8.769-2.667 17.866-11.436 20.32-8.769 2.453-17.867-2.666-20.32-11.437-.617-2.201-.754-4.422-.477-6.553.472-3.624-.691-9.526-5.886-15.319s-15.813 5.149-19.245 16.403l-.16.516c-3.433 11.252-5.599 21.072-4.952 22.018.386.562.745 1.154 1.073 1.771 4.818 9.064 1.375 20.317-7.688 25.134-9.064 4.817-20.316 1.375-25.134-7.687-4.817-9.065-1.375-20.317 7.688-25.134.407-.217.819-.416 1.233-.6.693-.304 2.656-5.035 4.36-10.622 1.706-5.589 2.437-7.554 3.087-10.117.874-3.445 2.156-10.597 1.518-14.135-.709-3.932-4.756-4.204-8.966-1.192-2.539 1.817-6.738 5.394-8.788 6.861-3.851 2.756-7.073 8.107-8.778 11.386-1.004 1.93-2.409 3.69-4.206 5.147-7.023 5.699-17.336 4.624-23.034-2.399-5.699-7.023-4.625-17.335 2.398-23.033 2.058-1.671 4.401-2.759 6.826-3.286 4.126-.897 18.159-9.469 26.613-15.519 1.514-1.082 4.058-2.884 4.923-3.989 2.532-3.236-.193-5.791-2.645-5.519-7.196.799-14.606 1.813-16.006 3.595-.828 1.053-1.814 2.008-2.956 2.829-6.561 4.727-15.712 3.238-20.439-3.323-4.728-6.564-3.238-15.715 3.323-20.441 2.707-1.95 5.854-2.841 8.947-2.756 5.263.146 19.11 2.955 30.694.902l2.975-.528c11.586-2.052 25.456-12.137 30.982-22.524 0 0 5.411-9.506 12.086-21.231 6.676-11.726 6.182-24.57-1.099-28.687l-13.188-7.455c-6.653-3.762-17.545-3.769-24.203-.015l-90.828 51.204c-6.657 3.754-12.105 13.08-12.105 20.722v100.062c0 7.643 5.448 16.968 12.105 20.722l90.828 51.203c6.658 3.755 17.55 3.748 24.203-.013l90.516-51.176c6.655-3.761 12.099-13.093 12.099-20.736v-100.062c0-7.642-5.444-16.974-12.099-20.736 0 0-6.703-3.79-14.972-8.466" fill="#fff" fill-rule="evenodd" transform="translate(-85 -85)"/></svg>