<svg fill="#fff" height="50" viewBox="0 0 50 50" width="50" xmlns="http://www.w3.org/2000/svg"><path d="m13 5 3 9v6h2v-6l3-9h-2l-2 6-2-6zm11 4c-1.066406 0-1.589844.167969-2.242187.703125-.625.527344-.796875.933594-.757813 2.296875v5c0 .996094.164063 1.652344.765625 2.234375.625.582031 1.214844.765625 2.234375.765625 1.066406 0 1.648438-.183594 2.25-.765625.625-.558594.75-1.238281.75-2.234375v-5c0-.882812-.15625-1.71875-.761719-2.277344-.625-.574218-1.269531-.722656-2.238281-.722656zm5 0v9c0 .972656.980469 2 2 2s1.558594-.511719 2-1v1h2v-11h-2v8c-.011719.683594-.816406 1-1 1-.207031 0-1-.042969-1-1v-8zm-5 2c.300781 0 1-.003906 1 1v5c0 .96875-.675781 1-1 1-.300781 0-1-.011719-1-1v-5c0-.816406.433594-1 1-1zm-14 11c-3.59375 0-6 2.382813-6 6v9.5c0 3.617188 2.40625 6.5 6 6.5h30c3.59375 0 6-2.382812 6-6v-10c0-3.617187-2.40625-6-6-6zm2 4h6v2h-2v12h-2v-12h-2zm14 0h2v4c.230469-.359375.574219-.644531.902344-.804687.320312-.164063.644531-.257813.972656-.257813.648438 0 1.15625.234375 1.503906.671875.347657.441406.621094 1.027344.621094 1.890625v6c0 .742188-.25 1.203125-.578125 1.597656-.320312.394532-.800781.894532-1.421875.902344-1.050781.011719-1.613281-.550781-2-1v1h-2zm-8 3h2v8c0 .230469.269531 1.007813 1 1 .8125-.007812.820313-.765625 1-1v-8h2v11h-2v-1c-.371094.4375-.5625.574219-.980469.78125-.414062.234375-.835937.21875-1.226562.21875-.484375 0-1.035156-.4375-1.292969-.765625-.230469-.300781-.5-.609375-.5-1.234375zm18.199219 0c.949219 0 1.617187.203125 2.121094.734375.515625.53125.679687 1.152344.679687 2.152344v3.113281h-4v1.546875c0 .558594.074219.914063.21875 1.125.136719.230469.414063.332031.78125.328125.40625-.003906.664063-.085937.800781-.269531.140625-.164063.199219-.628906.199219-1.230469v-.5h2v.59375c0 1.089844-.085937 1.902344-.625 2.433594-.507812.558594-1.300781.816406-2.339844.816406-.949218 0-1.691406-.28125-2.222656-.859375s-.808594-1.371094-.808594-2.390625v-4.707031c0-.90625.316407-1.578125.898438-2.175781.46875-.480469 1.347656-.710938 2.296875-.710938zm-7.199219 1.5c-.550781 0-.992187.496094-1 1v6c.007813.289063.449219.5 1 .5s1-.425781 1-.976562v-5.023438c0-1-.449219-1.5-1-1.5zm7 .5c-.550781 0-.992187.464844-1 1v1h2v-1c0-.613281-.449219-1-1-1z" fill="#fff" fill-rule="evenodd"/></svg>